<?xml version="1.0" encoding="UTF-8"?>
<svg id="Layer_4" data-name="Layer 4" xmlns="http://www.w3.org/2000/svg" viewBox="0 0 24 24">
  <defs>
    <style>
      .cls-1 {
        fill: #3b9f5c;
      }

      .cls-1, .cls-2 {
        fill-rule: evenodd;
      }

      .cls-2 {
        fill: #fa6923;
      }
    </style>
  </defs>
  <path class="cls-1" d="M18.36,22c2.56,0,4.64-2.08,4.64-4.64s-2.08-4.64-4.64-4.64-4.64,2.08-4.64,4.64,2.08,4.64,4.64,4.64ZM19.83,15.94l-1.96,2.09-.72-.89-.05-.06c-.19-.17-.48-.19-.69-.02-.23.18-.26.51-.08.74l1.1,1.37.05.06c.21.19.54.19.74-.03l2.37-2.54.05-.06c.15-.21.12-.5-.07-.68-.21-.2-.54-.19-.74.03Z"/>
  <path class="cls-2" d="M19.75,6.5h-5.93l-4.17,3.48-.16.12c-.32.22-.7.36-1.09.39h-.2s-6.21,0-6.21,0v7.41c.08,1.17,1.06,2.1,2.25,2.1h9.12c-.42-.79-.65-1.69-.65-2.64,0-3.11,2.53-5.64,5.64-5.64,1.39,0,2.66.5,3.64,1.33v-4.46s-.02-.16-.02-.16c-.15-1.1-1.09-1.94-2.23-1.94ZM9.5,4.4c-.38-.26-.82-.4-1.28-.4h-4.11c-1.17.08-2.1,1.06-2.1,2.25v2.75h6.21s.1,0,.1,0c.1-.01.2-.05.29-.11l.08-.06,3.06-2.55-2.1-1.75-.16-.12Z"/>
</svg>