<?xml version="1.0" encoding="UTF-8"?>
<svg id="Layer_4" data-name="Layer 4" xmlns="http://www.w3.org/2000/svg" viewBox="0 0 24 24">
  <defs>
    <style>
      .cls-1, .cls-2 {
        fill: #d13434;
      }

      .cls-2 {
        fill-rule: evenodd;
      }
    </style>
  </defs>
  <path class="cls-1" d="M10.5,9.68c0-.4-.34-.73-.75-.73s-.75.33-.75.73v7.32c0,.4.34.73.75.73s.75-.33.75-.73v-7.32ZM14.25,8.94c.41,0,.75.33.75.73v7.32c0,.4-.34.73-.75.73s-.75-.33-.75-.73v-7.32c0-.4.34-.73.75-.73Z"/>
  <path class="cls-2" d="M4.34,6.39h-1.16c-.38,0-.68-.31-.68-.7s.3-.69.68-.69h5.79c.05-1.67,1.39-3,3.03-3s2.98,1.34,3.03,3h5.79c.38,0,.68.31.68.69,0,.34-.23.62-.54.68-.04,0-.09.01-.14.01h-1.16l-1.39,12.34c-.21,1.86-1.76,3.27-3.6,3.27h-5.34c-1.84,0-3.39-1.41-3.6-3.27l-1.39-12.34ZM5.71,6.39h12.58l-1.38,12.18c-.13,1.17-1.1,2.04-2.24,2.04h-5.34c-1.14,0-2.11-.88-2.24-2.04l-1.38-12.18ZM10.62,4.41c-.07.18-.11.38-.11.57h2.99c0-.2-.04-.39-.11-.57-.07-.18-.18-.35-.32-.49-.14-.14-.31-.25-.49-.33-.18-.07-.38-.11-.57-.11s-.39.04-.57.11c-.18.08-.35.19-.49.33-.14.14-.25.3-.32.49Z"/>
</svg>